<svg xmlns="http://www.w3.org/2000/svg" xmlns:xlink="http://www.w3.org/1999/xlink" width="764" zoomAndPan="magnify" viewBox="0 0 573 573.000005" height="764" preserveAspectRatio="xMidYMid meet" version="1.0"><defs><clipPath id="82ccf3b4c5"><path d="M 0.5 0 L 572.5 0 L 572.5 572 L 0.5 572 Z M 0.5 0 " clip-rule="nonzero"/></clipPath><clipPath id="27ce780f6d"><path d="M 45 353.429688 L 529 353.429688 L 529 449.261719 L 45 449.261719 Z M 45 353.429688 " clip-rule="nonzero"/></clipPath><clipPath id="f925c95837"><path d="M 164.765625 83.476562 L 393.867188 83.476562 L 393.867188 312.578125 L 164.765625 312.578125 Z M 164.765625 83.476562 " clip-rule="nonzero"/></clipPath></defs><g clip-path="url(#82ccf3b4c5)"><path fill="#ffffff" d="M 0.5 0 L 572.5 0 L 572.5 579.488281 L 0.5 579.488281 Z M 0.5 0 " fill-opacity="1" fill-rule="nonzero"/><path fill="#ffffff" d="M 0.5 0 L 572.5 0 L 572.5 572 L 0.5 572 Z M 0.5 0 " fill-opacity="1" fill-rule="nonzero"/><path fill="#1c1b1a" d="M 0.5 0 L 572.5 0 L 572.5 572 L 0.5 572 Z M 0.5 0 " fill-opacity="1" fill-rule="nonzero"/></g><g clip-path="url(#27ce780f6d)"><path fill="#ffffff" d="M 289.078125 438.464844 C 289.078125 440.152344 289.078125 440.527344 290.214844 441.570312 L 296.550781 447.839844 L 296.550781 448.113281 L 268.464844 448.113281 L 268.464844 436.066406 C 265.640625 444.003906 258.160156 449.253906 249.839844 449.140625 C 235.398438 449.140625 224.917969 437.671875 224.917969 416.570312 C 224.917969 396.808594 236.226562 383.621094 252.097656 383.621094 C 259.132812 383.175781 265.683594 387.28125 268.421875 393.867188 L 268.421875 367.296875 C 268.632812 366.066406 268.136719 364.824219 267.140625 364.085938 L 261.105469 358.152344 L 261.105469 357.878906 L 289.078125 354.546875 Z M 268.453125 434.640625 L 268.453125 395.003906 C 267.957031 394.371094 267.390625 393.804688 266.761719 393.304688 C 266.136719 392.804688 265.457031 392.382812 264.730469 392.039062 C 264.007812 391.691406 263.25 391.433594 262.46875 391.265625 C 261.683594 391.09375 260.886719 391.015625 260.085938 391.027344 C 253.261719 391.027344 246.660156 397.296875 246.660156 415.914062 C 246.660156 433.34375 252.351562 439.507812 259.441406 439.507812 C 263.078125 439.433594 266.378906 437.636719 268.449219 434.652344 Z M 307.699219 448.105469 L 307.699219 394.578125 C 307.878906 393.382812 307.453125 392.179688 306.5625 391.367188 L 300.339844 384.867188 L 300.339844 384.59375 L 328.425781 384.59375 L 328.425781 438.875 C 328.425781 440.566406 328.425781 440.9375 329.5625 441.980469 L 335.753906 447.910156 L 335.753906 448.1875 Z M 306.679688 365.035156 C 306.675781 364.285156 306.746094 363.542969 306.886719 362.808594 C 307.027344 362.074219 307.238281 361.359375 307.523438 360.667969 C 307.804688 359.972656 308.148438 359.3125 308.5625 358.6875 C 308.972656 358.066406 309.441406 357.484375 309.964844 356.953125 C 310.492188 356.421875 311.0625 355.945312 311.679688 355.527344 C 312.300781 355.105469 312.953125 354.75 313.640625 354.460938 C 314.328125 354.171875 315.039062 353.949219 315.769531 353.800781 C 316.5 353.648438 317.242188 353.570312 317.988281 353.566406 C 318.734375 353.570312 319.472656 353.648438 320.203125 353.800781 C 320.9375 353.949219 321.644531 354.171875 322.332031 354.460938 C 323.023438 354.75 323.675781 355.105469 324.292969 355.527344 C 324.910156 355.945312 325.484375 356.421875 326.007812 356.953125 C 326.535156 357.484375 327 358.066406 327.414062 358.6875 C 327.824219 359.3125 328.171875 359.972656 328.453125 360.667969 C 328.734375 361.359375 328.945312 362.074219 329.089844 362.808594 C 329.230469 363.542969 329.300781 364.285156 329.296875 365.035156 C 329.300781 365.785156 329.230469 366.527344 329.089844 367.261719 C 328.945312 367.996094 328.734375 368.710938 328.453125 369.402344 C 328.171875 370.097656 327.824219 370.753906 327.414062 371.378906 C 327 372.003906 326.535156 372.582031 326.007812 373.117188 C 325.484375 373.648438 324.910156 374.125 324.292969 374.542969 C 323.675781 374.964844 323.023438 375.320312 322.332031 375.609375 C 321.644531 375.898438 320.9375 376.121094 320.203125 376.269531 C 319.472656 376.421875 318.734375 376.5 317.988281 376.503906 C 317.242188 376.5 316.5 376.421875 315.769531 376.269531 C 315.039062 376.121094 314.328125 375.898438 313.640625 375.609375 C 312.953125 375.320312 312.300781 374.964844 311.679688 374.542969 C 311.0625 374.125 310.492188 373.648438 309.964844 373.117188 C 309.441406 372.582031 308.972656 372.003906 308.5625 371.378906 C 308.148438 370.753906 307.804688 370.097656 307.523438 369.402344 C 307.238281 368.710938 307.027344 367.996094 306.886719 367.261719 C 306.746094 366.527344 306.675781 365.785156 306.679688 365.035156 Z M 404.214844 438.355469 C 404.214844 440.042969 404.214844 440.53125 405.355469 441.570312 L 411.6875 447.839844 L 411.6875 448.113281 L 383.453125 448.113281 L 383.453125 434.390625 C 380.878906 443.070312 373.042969 449.039062 364.113281 449.144531 C 351.597656 449.144531 344.886719 439.894531 344.886719 422.382812 L 345.148438 394.285156 C 345.355469 393.125 344.921875 391.9375 344.011719 391.183594 L 337.792969 384.875 L 337.792969 384.601562 L 365.648438 384.601562 L 365.648438 419.503906 C 365.648438 430.972656 367.3125 438.617188 374.394531 438.617188 C 378.199219 438.375 381.675781 436.207031 383.519531 432.84375 L 383.519531 394.617188 C 383.703125 393.417969 383.273438 392.214844 382.382812 391.402344 L 376.125 384.867188 L 376.125 384.59375 L 404.210938 384.59375 Z M 499.777344 448.105469 L 500.15625 413.695312 C 500.15625 402.226562 498.382812 394.3125 490.429688 394.3125 C 486.425781 394.4375 482.722656 396.480469 480.441406 399.816406 C 481.242188 403.40625 481.621094 407.035156 481.574219 410.710938 L 481.199219 438.921875 C 480.992188 440.085938 481.425781 441.273438 482.335938 442.023438 L 488.671875 447.957031 L 488.671875 448.230469 L 460.320312 448.230469 L 460.699219 413.824219 C 460.699219 402.164062 458.921875 394.441406 451.082031 394.441406 C 450.128906 394.476562 449.191406 394.632812 448.277344 394.90625 C 447.363281 395.183594 446.496094 395.566406 445.679688 396.0625 C 444.859375 396.554688 444.117188 397.144531 443.449219 397.828125 C 442.78125 398.511719 442.207031 399.269531 441.730469 400.101562 L 441.730469 439.089844 C 441.730469 440.777344 441.730469 441.152344 442.867188 442.195312 L 449.058594 448.125 L 449.058594 448.398438 L 421.007812 448.398438 L 421.007812 394.773438 C 421.191406 393.578125 420.761719 392.375 419.871094 391.5625 L 413.675781 384.871094 L 413.675781 384.597656 L 441.761719 384.597656 L 441.761719 398.207031 C 444.367188 389.214844 452.664062 383.183594 461.894531 383.566406 C 471.246094 383.566406 477.574219 388.84375 480.257812 398.855469 C 483.226562 389.617188 491.789062 383.421875 501.371094 383.566406 C 513.886719 383.566406 520.976562 392.929688 520.976562 410.628906 L 520.597656 438.839844 C 520.378906 440.039062 520.878906 441.257812 521.878906 441.941406 L 528.070312 447.875 L 528.070312 448.148438 Z M 146.992188 439.769531 L 155.316406 447.839844 L 155.316406 448.113281 L 113.058594 448.113281 L 113.058594 447.839844 L 121.539062 439.769531 C 122.449219 439.023438 122.875 437.839844 122.675781 436.667969 L 122.675781 385.101562 C 122.675781 382.921875 122.675781 379.976562 123.054688 377.457031 L 94.59375 449.125 L 94.253906 449.125 L 64.734375 383.183594 L 63.492188 380.316406 L 63.492188 423.550781 C 63.136719 426.445312 63.628906 429.378906 64.890625 431.996094 L 76.71875 447.820312 L 76.71875 448.09375 L 45.199219 448.09375 L 45.199219 447.820312 L 57.03125 431.957031 C 58.285156 429.347656 58.769531 426.425781 58.425781 423.546875 L 58.425781 375.769531 C 58.617188 373.414062 57.917969 371.078125 56.46875 369.234375 L 48.066406 358.191406 L 48.066406 357.914062 L 78.226562 357.914062 L 103.480469 413.773438 L 125.726562 357.914062 L 155.246094 357.914062 L 155.246094 358.191406 L 146.949219 367.554688 C 145.957031 368.285156 145.457031 369.535156 145.667969 370.765625 L 145.667969 436.667969 C 145.449219 437.867188 145.949219 439.085938 146.949219 439.769531 Z M 180.054688 413.929688 L 180.054688 414.203125 C 180.054688 430.5625 188.382812 437.136719 198.152344 437.136719 C 199.148438 437.167969 200.140625 437.128906 201.132812 437.015625 C 202.121094 436.902344 203.097656 436.71875 204.0625 436.460938 C 205.023438 436.207031 205.964844 435.882812 206.878906 435.488281 C 207.796875 435.097656 208.679688 434.640625 209.527344 434.117188 C 210.378906 433.59375 211.183594 433.015625 211.949219 432.375 C 212.714844 431.734375 213.429688 431.042969 214.09375 430.296875 C 214.757812 429.554688 215.367188 428.765625 215.917969 427.933594 C 216.46875 427.101562 216.953125 426.230469 217.378906 425.328125 L 217.644531 425.328125 C 214.246094 441.496094 204.375 449.148438 189.59375 449.148438 C 173.648438 449.148438 158.648438 439.402344 158.648438 416.808594 C 158.648438 393.066406 173.730469 383.585938 190.394531 383.585938 C 203.816406 383.585938 218.105469 390.007812 218.105469 410.648438 L 218.105469 413.933594 Z M 180.054688 410.640625 L 198.640625 410.640625 L 198.640625 407.3125 C 198.640625 390.488281 195.207031 386.019531 190.039062 386.019531 C 183.78125 386.019531 179.972656 392.707031 179.972656 410.636719 Z M 180.054688 410.640625 " fill-opacity="1" fill-rule="nonzero"/></g><g clip-path="url(#f925c95837)"><path fill="#ffffff" d="M 199.132812 83.476562 L 359.5 83.476562 C 360.625 83.476562 361.75 83.535156 362.871094 83.644531 C 363.988281 83.753906 365.101562 83.917969 366.207031 84.136719 C 367.308594 84.359375 368.398438 84.632812 369.476562 84.957031 C 370.554688 85.285156 371.613281 85.664062 372.652344 86.09375 C 373.691406 86.523438 374.707031 87.003906 375.699219 87.535156 C 376.695312 88.066406 377.65625 88.644531 378.59375 89.269531 C 379.53125 89.894531 380.433594 90.566406 381.300781 91.277344 C 382.171875 91.992188 383.003906 92.746094 383.800781 93.542969 C 384.597656 94.339844 385.351562 95.171875 386.066406 96.042969 C 386.78125 96.914062 387.449219 97.816406 388.074219 98.75 C 388.699219 99.6875 389.277344 100.652344 389.808594 101.644531 C 390.339844 102.636719 390.820312 103.652344 391.25 104.691406 C 391.679688 105.730469 392.058594 106.789062 392.386719 107.867188 C 392.714844 108.945312 392.988281 110.035156 393.207031 111.140625 C 393.425781 112.242188 393.589844 113.355469 393.699219 114.476562 C 393.8125 115.59375 393.867188 116.71875 393.867188 117.84375 L 393.867188 278.214844 C 393.867188 279.339844 393.8125 280.460938 393.699219 281.582031 C 393.589844 282.703125 393.425781 283.8125 393.207031 284.917969 C 392.988281 286.019531 392.714844 287.113281 392.386719 288.1875 C 392.058594 289.265625 391.679688 290.324219 391.25 291.363281 C 390.820312 292.402344 390.339844 293.421875 389.808594 294.414062 C 389.277344 295.40625 388.699219 296.371094 388.074219 297.304688 C 387.449219 298.242188 386.78125 299.144531 386.066406 300.015625 C 385.351562 300.882812 384.597656 301.71875 383.800781 302.511719 C 383.003906 303.308594 382.171875 304.0625 381.300781 304.777344 C 380.433594 305.492188 379.53125 306.160156 378.59375 306.785156 C 377.65625 307.410156 376.695312 307.988281 375.699219 308.519531 C 374.707031 309.050781 373.691406 309.53125 372.652344 309.960938 C 371.613281 310.394531 370.554688 310.773438 369.476562 311.097656 C 368.398438 311.425781 367.308594 311.699219 366.207031 311.917969 C 365.101562 312.136719 363.988281 312.300781 362.871094 312.414062 C 361.75 312.523438 360.625 312.578125 359.5 312.578125 L 199.132812 312.578125 C 198.003906 312.578125 196.882812 312.523438 195.761719 312.414062 C 194.644531 312.300781 193.53125 312.136719 192.425781 311.917969 C 191.324219 311.699219 190.234375 311.425781 189.15625 311.097656 C 188.078125 310.773438 187.019531 310.394531 185.980469 309.960938 C 184.941406 309.53125 183.925781 309.050781 182.933594 308.519531 C 181.9375 307.988281 180.976562 307.410156 180.039062 306.785156 C 179.101562 306.160156 178.199219 305.492188 177.332031 304.777344 C 176.460938 304.0625 175.628906 303.308594 174.832031 302.511719 C 174.035156 301.71875 173.28125 300.882812 172.566406 300.015625 C 171.851562 299.144531 171.183594 298.242188 170.558594 297.304688 C 169.933594 296.371094 169.355469 295.40625 168.824219 294.414062 C 168.292969 293.421875 167.8125 292.402344 167.382812 291.363281 C 166.953125 290.324219 166.574219 289.265625 166.246094 288.1875 C 165.917969 287.113281 165.644531 286.019531 165.425781 284.917969 C 165.207031 283.8125 165.042969 282.703125 164.933594 281.582031 C 164.820312 280.460938 164.765625 279.339844 164.765625 278.214844 L 164.765625 117.84375 C 164.765625 116.71875 164.820312 115.59375 164.933594 114.476562 C 165.042969 113.355469 165.207031 112.242188 165.425781 111.140625 C 165.644531 110.035156 165.917969 108.945312 166.246094 107.867188 C 166.574219 106.789062 166.953125 105.730469 167.382812 104.691406 C 167.8125 103.652344 168.292969 102.636719 168.824219 101.644531 C 169.355469 100.652344 169.933594 99.6875 170.558594 98.75 C 171.183594 97.816406 171.851562 96.914062 172.566406 96.042969 C 173.28125 95.171875 174.035156 94.339844 174.832031 93.542969 C 175.628906 92.746094 176.460938 91.992188 177.332031 91.277344 C 178.199219 90.566406 179.101562 89.894531 180.039062 89.269531 C 180.976562 88.644531 181.9375 88.066406 182.933594 87.535156 C 183.925781 87.003906 184.941406 86.523438 185.980469 86.09375 C 187.019531 85.664062 188.078125 85.285156 189.15625 84.957031 C 190.234375 84.632812 191.324219 84.359375 192.425781 84.136719 C 193.53125 83.917969 194.644531 83.753906 195.761719 83.644531 C 196.882812 83.535156 198.003906 83.476562 199.132812 83.476562 Z M 199.132812 83.476562 " fill-opacity="1" fill-rule="nonzero"/></g><path fill="#1c1b1a" d="M 220.699219 160.890625 C 220.699219 159.097656 219.804688 156.863281 218.460938 155.964844 L 204.589844 138.964844 L 204.589844 136.277344 L 248.441406 136.277344 L 282 210.558594 L 311.980469 136.277344 L 353.59375 136.277344 L 353.59375 138.964844 L 341.511719 150.597656 C 340.617188 151.042969 340.171875 152.386719 340.171875 153.730469 L 340.171875 238.746094 C 340.171875 240.089844 340.617188 241.433594 341.511719 242.328125 L 353.59375 253.511719 L 353.59375 256.199219 L 294.082031 256.199219 L 294.082031 253.511719 L 306.164062 241.878906 C 307.507812 240.535156 307.507812 240.089844 307.507812 238.300781 L 307.507812 169.839844 L 273.5 255.75 L 269.023438 255.75 L 229.648438 169.839844 L 229.648438 227.5625 C 229.199219 229.796875 230.09375 232.484375 231.886719 234.273438 L 247.546875 253.511719 L 247.546875 255.75 L 202.800781 255.75 L 202.800781 253.511719 L 218.460938 234.273438 C 220.25 232.484375 221.144531 229.796875 220.699219 227.5625 Z M 220.699219 160.890625 " fill-opacity="1" fill-rule="nonzero"/></svg>