<svg xmlns="http://www.w3.org/2000/svg" xmlns:xlink="http://www.w3.org/1999/xlink" width="764" zoomAndPan="magnify" viewBox="0 0 573 573.000005" height="764" preserveAspectRatio="xMidYMid meet" version="1.0"><defs><clipPath id="596409b103"><path d="M 4.960938 4.460938 L 567.976562 4.460938 L 567.976562 567.480469 L 4.960938 567.480469 Z M 4.960938 4.460938 " clip-rule="nonzero"/></clipPath></defs><g clip-path="url(#596409b103)"><path fill="#ffffff" d="M 89.414062 4.460938 L 483.523438 4.460938 C 484.90625 4.460938 486.289062 4.496094 487.667969 4.5625 C 489.050781 4.628906 490.425781 4.730469 491.804688 4.867188 C 493.179688 5.003906 494.550781 5.171875 495.917969 5.375 C 497.285156 5.578125 498.644531 5.8125 500 6.082031 C 501.355469 6.355469 502.703125 6.65625 504.046875 6.992188 C 505.386719 7.328125 506.71875 7.695312 508.039062 8.097656 C 509.363281 8.5 510.675781 8.933594 511.976562 9.398438 C 513.277344 9.863281 514.566406 10.359375 515.84375 10.890625 C 517.121094 11.417969 518.382812 11.980469 519.632812 12.570312 C 520.882812 13.160156 522.117188 13.78125 523.335938 14.433594 C 524.554688 15.085938 525.757812 15.765625 526.941406 16.476562 C 528.128906 17.1875 529.296875 17.925781 530.445312 18.695312 C 531.59375 19.460938 532.722656 20.257812 533.832031 21.082031 C 534.945312 21.902344 536.03125 22.753906 537.101562 23.632812 C 538.167969 24.507812 539.214844 25.410156 540.238281 26.339844 C 541.265625 27.265625 542.265625 28.21875 543.242188 29.195312 C 544.21875 30.175781 545.171875 31.175781 546.101562 32.199219 C 547.027344 33.222656 547.929688 34.269531 548.808594 35.335938 C 549.683594 36.40625 550.535156 37.496094 551.359375 38.605469 C 552.179688 39.714844 552.976562 40.84375 553.746094 41.996094 C 554.511719 43.144531 555.25 44.3125 555.960938 45.496094 C 556.671875 46.683594 557.355469 47.882812 558.003906 49.101562 C 558.65625 50.320312 559.277344 51.554688 559.871094 52.804688 C 560.460938 54.054688 561.019531 55.316406 561.550781 56.59375 C 562.078125 57.871094 562.574219 59.160156 563.039062 60.460938 C 563.507812 61.765625 563.941406 63.074219 564.339844 64.398438 C 564.742188 65.722656 565.109375 67.054688 565.445312 68.394531 C 565.78125 69.734375 566.085938 71.082031 566.355469 72.4375 C 566.625 73.792969 566.859375 75.15625 567.0625 76.523438 C 567.265625 77.890625 567.433594 79.261719 567.570312 80.636719 C 567.707031 82.011719 567.808594 83.390625 567.875 84.769531 C 567.945312 86.148438 567.976562 87.53125 567.976562 88.914062 L 567.976562 483.027344 C 567.976562 484.40625 567.945312 485.789062 567.875 487.167969 C 567.808594 488.550781 567.707031 489.929688 567.570312 491.304688 C 567.433594 492.679688 567.265625 494.050781 567.0625 495.417969 C 566.859375 496.785156 566.625 498.144531 566.355469 499.5 C 566.085938 500.855469 565.78125 502.207031 565.445312 503.546875 C 565.109375 504.886719 564.742188 506.21875 564.339844 507.542969 C 563.941406 508.863281 563.507812 510.175781 563.039062 511.476562 C 562.574219 512.777344 562.078125 514.066406 561.550781 515.34375 C 561.019531 516.621094 560.460938 517.882812 559.871094 519.132812 C 559.277344 520.382812 558.65625 521.617188 558.003906 522.835938 C 557.355469 524.054688 556.671875 525.257812 555.960938 526.441406 C 555.25 527.628906 554.511719 528.796875 553.746094 529.945312 C 552.976562 531.09375 552.179688 532.222656 551.359375 533.335938 C 550.535156 534.445312 549.683594 535.535156 548.808594 536.601562 C 547.929688 537.671875 547.027344 538.714844 546.101562 539.742188 C 545.171875 540.765625 544.21875 541.765625 543.242188 542.742188 C 542.265625 543.71875 541.265625 544.671875 540.238281 545.601562 C 539.214844 546.53125 538.167969 547.433594 537.101562 548.308594 C 536.03125 549.183594 534.945312 550.035156 533.832031 550.859375 C 532.722656 551.683594 531.59375 552.476562 530.445312 553.246094 C 529.296875 554.011719 528.128906 554.753906 526.941406 555.464844 C 525.757812 556.175781 524.554688 556.855469 523.335938 557.507812 C 522.117188 558.15625 520.882812 558.777344 519.632812 559.371094 C 518.382812 559.960938 517.121094 560.519531 515.84375 561.050781 C 514.566406 561.578125 513.277344 562.074219 511.976562 562.542969 C 510.675781 563.007812 509.363281 563.441406 508.039062 563.84375 C 506.71875 564.242188 505.386719 564.613281 504.046875 564.949219 C 502.703125 565.285156 501.355469 565.585938 500 565.855469 C 498.644531 566.125 497.285156 566.363281 495.917969 566.5625 C 494.550781 566.765625 493.179688 566.9375 491.804688 567.070312 C 490.425781 567.207031 489.050781 567.308594 487.667969 567.375 C 486.289062 567.445312 484.90625 567.480469 483.523438 567.480469 L 89.414062 567.480469 C 88.03125 567.480469 86.648438 567.445312 85.269531 567.375 C 83.886719 567.308594 82.511719 567.207031 81.136719 567.070312 C 79.757812 566.9375 78.386719 566.765625 77.019531 566.5625 C 75.652344 566.363281 74.292969 566.125 72.9375 565.855469 C 71.582031 565.585938 70.234375 565.285156 68.890625 564.949219 C 67.550781 564.613281 66.21875 564.242188 64.898438 563.84375 C 63.574219 563.441406 62.261719 563.007812 60.960938 562.542969 C 59.660156 562.074219 58.371094 561.578125 57.09375 561.050781 C 55.816406 560.519531 54.554688 559.960938 53.304688 559.371094 C 52.054688 558.777344 50.820312 558.15625 49.601562 557.507812 C 48.382812 556.855469 47.179688 556.175781 45.996094 555.464844 C 44.808594 554.753906 43.644531 554.011719 42.492188 553.246094 C 41.34375 552.476562 40.214844 551.683594 39.105469 550.859375 C 37.996094 550.035156 36.90625 549.183594 35.835938 548.308594 C 34.769531 547.433594 33.722656 546.53125 32.699219 545.601562 C 31.675781 544.671875 30.671875 543.71875 29.695312 542.742188 C 28.71875 541.765625 27.765625 540.765625 26.835938 539.742188 C 25.910156 538.714844 25.007812 537.671875 24.128906 536.601562 C 23.253906 535.535156 22.402344 534.445312 21.578125 533.335938 C 20.757812 532.222656 19.960938 531.09375 19.191406 529.945312 C 18.425781 528.796875 17.6875 527.628906 16.976562 526.441406 C 16.265625 525.257812 15.582031 524.054688 14.933594 522.835938 C 14.28125 521.617188 13.660156 520.382812 13.070312 519.132812 C 12.476562 517.882812 11.917969 516.621094 11.390625 515.34375 C 10.859375 514.066406 10.363281 512.777344 9.898438 511.476562 C 9.429688 510.175781 8.996094 508.863281 8.597656 507.542969 C 8.195312 506.21875 7.828125 504.886719 7.492188 503.546875 C 7.15625 502.207031 6.851562 500.855469 6.582031 499.5 C 6.3125 498.144531 6.078125 496.785156 5.875 495.417969 C 5.671875 494.050781 5.503906 492.679688 5.367188 491.304688 C 5.230469 489.929688 5.128906 488.550781 5.0625 487.167969 C 4.996094 485.789062 4.960938 484.40625 4.960938 483.027344 L 4.960938 88.914062 C 4.960938 87.53125 4.996094 86.148438 5.0625 84.769531 C 5.128906 83.390625 5.230469 82.011719 5.367188 80.636719 C 5.503906 79.261719 5.671875 77.890625 5.875 76.523438 C 6.078125 75.15625 6.3125 73.792969 6.582031 72.4375 C 6.851562 71.082031 7.15625 69.734375 7.492188 68.394531 C 7.828125 67.054688 8.195312 65.722656 8.597656 64.398438 C 8.996094 63.074219 9.429688 61.765625 9.898438 60.460938 C 10.363281 59.160156 10.859375 57.871094 11.390625 56.59375 C 11.917969 55.316406 12.476562 54.054688 13.070312 52.804688 C 13.660156 51.554688 14.28125 50.320312 14.933594 49.101562 C 15.582031 47.882812 16.265625 46.683594 16.976562 45.496094 C 17.6875 44.3125 18.425781 43.144531 19.191406 41.996094 C 19.960938 40.84375 20.757812 39.714844 21.578125 38.605469 C 22.402344 37.496094 23.253906 36.40625 24.128906 35.335938 C 25.007812 34.269531 25.910156 33.222656 26.835938 32.199219 C 27.765625 31.175781 28.71875 30.175781 29.695312 29.195312 C 30.671875 28.21875 31.675781 27.265625 32.699219 26.339844 C 33.722656 25.410156 34.769531 24.507812 35.835938 23.632812 C 36.90625 22.753906 37.996094 21.902344 39.105469 21.082031 C 40.214844 20.257812 41.34375 19.460938 42.492188 18.695312 C 43.644531 17.925781 44.808594 17.1875 45.996094 16.476562 C 47.179688 15.765625 48.382812 15.085938 49.601562 14.433594 C 50.820312 13.78125 52.054688 13.160156 53.304688 12.570312 C 54.554688 11.980469 55.816406 11.417969 57.09375 10.890625 C 58.371094 10.359375 59.660156 9.863281 60.960938 9.398438 C 62.261719 8.933594 63.574219 8.5 64.898438 8.097656 C 66.21875 7.695312 67.550781 7.328125 68.890625 6.992188 C 70.234375 6.65625 71.582031 6.355469 72.9375 6.082031 C 74.292969 5.8125 75.652344 5.578125 77.019531 5.375 C 78.386719 5.171875 79.757812 5.003906 81.136719 4.867188 C 82.511719 4.730469 83.886719 4.628906 85.269531 4.5625 C 86.648438 4.496094 88.03125 4.460938 89.414062 4.460938 Z M 89.414062 4.460938 " fill-opacity="1" fill-rule="nonzero"/></g><path fill="#1c1b1a" d="M 142.414062 194.699219 C 142.414062 190.300781 140.214844 184.800781 136.917969 182.601562 L 102.828125 140.816406 L 102.828125 134.21875 L 210.59375 134.21875 L 293.066406 316.761719 L 366.742188 134.21875 L 469.007812 134.21875 L 469.007812 140.816406 L 439.320312 169.40625 C 437.121094 170.507812 436.019531 173.804688 436.019531 177.105469 L 436.019531 386.039062 C 436.019531 389.335938 437.121094 392.636719 439.320312 394.835938 L 469.007812 422.324219 L 469.007812 428.921875 L 322.757812 428.921875 L 322.757812 422.324219 L 352.449219 393.734375 C 355.746094 390.4375 355.746094 389.335938 355.746094 384.9375 L 355.746094 216.691406 L 272.171875 427.824219 L 261.175781 427.824219 L 164.410156 216.691406 L 164.410156 358.546875 C 163.308594 364.042969 165.507812 370.640625 169.90625 375.039062 L 208.394531 422.324219 L 208.394531 427.824219 L 98.429688 427.824219 L 98.429688 422.324219 L 136.917969 375.039062 C 141.316406 370.640625 143.515625 364.042969 142.414062 358.546875 Z M 142.414062 194.699219 " fill-opacity="1" fill-rule="nonzero"/></svg>