<svg xmlns="http://www.w3.org/2000/svg" xmlns:xlink="http://www.w3.org/1999/xlink" width="764" zoomAndPan="magnify" viewBox="0 0 573 573.000005" height="764" preserveAspectRatio="xMidYMid meet" version="1.0"><defs><clipPath id="ccd97c9463"><path d="M 150 13.523438 L 275 13.523438 L 275 492 L 150 492 Z M 150 13.523438 " clip-rule="nonzero"/></clipPath><clipPath id="0291bc515d"><path d="M 262 423 L 294 423 L 294 558.574219 L 262 558.574219 Z M 262 423 " clip-rule="nonzero"/></clipPath></defs><path fill="#599636" d="M 271.277344 15.007812 L 285.804688 42.328125 C 289.070312 47.367188 292.605469 51.832031 296.773438 55.988281 C 308.933594 68.164062 320.480469 80.921875 330.855469 94.582031 C 355.46875 126.945312 372.066406 162.882812 383.921875 201.753906 C 391.03125 225.496094 394.890625 249.855469 395.179688 274.484375 C 396.371094 348.117188 371.164062 411.339844 320.347656 463.886719 C 312.046875 472.199219 303.167969 479.898438 293.644531 486.746094 C 288.609375 486.746094 286.230469 482.878906 284.152344 479.320312 C 280.292969 472.796875 277.929688 465.351562 276.738281 457.941406 C 274.953125 449.035156 273.777344 440.125 274.359375 430.929688 L 274.359375 426.773438 C 273.949219 425.886719 269.511719 17.101562 271.277344 15.007812 Z M 271.277344 15.007812 " fill-opacity="1" fill-rule="nonzero"/><g clip-path="url(#ccd97c9463)"><path fill="#6cac48" d="M 271.277344 14.101562 C 270.683594 12.910156 270.089844 13.8125 269.492188 14.394531 C 269.78125 20.355469 267.707031 25.667969 264.460938 30.746094 C 260.886719 35.785156 256.160156 39.652344 251.414062 43.808594 C 225.050781 66.667969 204.304688 94.277344 187.6875 125.15625 C 165.578125 166.71875 154.179688 211.257812 150.949219 258.148438 C 149.46875 275.0625 156.289062 334.746094 161.613281 351.964844 C 176.136719 397.679688 202.226562 435.988281 236.023438 469.234375 C 244.320312 477.242188 253.199219 484.667969 262.382812 491.804688 C 265.054688 491.804688 265.34375 489.417969 265.957031 487.648438 C 267.128906 483.851562 268.019531 479.992188 268.625 476.066406 L 274.578125 431.542969 Z M 271.277344 14.101562 " fill-opacity="1" fill-rule="nonzero"/></g><g clip-path="url(#0291bc515d)"><path fill="#c2bfbf" d="M 285.804688 504.835938 C 286.398438 498.019531 289.664062 492.367188 293.21875 486.730469 C 289.648438 485.246094 286.996094 482.300781 284.917969 479.011719 C 283.132812 476.050781 281.652344 472.488281 280.496094 469.21875 C 276.347656 456.75 275.464844 443.667969 274.273438 430.929688 L 274.273438 423.214844 C 272.792969 424.40625 272.488281 434.488281 272.488281 435.988281 C 271.621094 449.46875 269.839844 462.828125 267.144531 476.066406 C 266.261719 481.414062 265.667969 486.746094 262.382812 491.496094 C 262.382812 492.09375 262.382812 492.691406 262.671875 493.574219 C 268.015625 509.3125 269.476562 525.34375 270.378906 541.675781 L 270.378906 547.636719 C 270.378906 554.757812 270.089844 553.257812 275.992188 555.644531 C 278.371094 556.527344 281.023438 556.835938 283.40625 558.605469 C 285.191406 558.605469 285.480469 557.125 285.480469 555.933594 L 284.597656 546.140625 L 284.597656 518.820312 C 284.308594 514.050781 285.191406 509.3125 285.785156 504.851562 Z M 285.804688 504.835938 " fill-opacity="1" fill-rule="nonzero"/></g></svg>