<svg xmlns="http://www.w3.org/2000/svg" xmlns:xlink="http://www.w3.org/1999/xlink" width="764" zoomAndPan="magnify" viewBox="0 0 573 573.000005" height="764" preserveAspectRatio="xMidYMid meet" version="1.0"><defs><clipPath id="2927cb1a4a"><path d="M 11.804688 11.304688 L 561.34375 11.304688 L 561.34375 560.847656 L 11.804688 560.847656 Z M 11.804688 11.304688 " clip-rule="nonzero"/></clipPath><clipPath id="17b24664db"><path d="M 11.804688 200 L 120 200 L 120 331 L 11.804688 331 Z M 11.804688 200 " clip-rule="nonzero"/></clipPath></defs><g clip-path="url(#2927cb1a4a)"><path fill="#f2f2f2" d="M 561.347656 286.074219 C 561.347656 437.824219 438.324219 560.847656 286.578125 560.847656 C 146.566406 560.847656 31.019531 456.132812 13.980469 320.738281 C 12.542969 309.390625 11.804688 297.816406 11.804688 286.074219 C 11.804688 264.5625 14.273438 243.625 18.949219 223.535156 C 47.253906 101.921875 156.335938 11.304688 286.578125 11.304688 C 416.492188 11.304688 525.355469 101.472656 553.980469 222.644531 C 557.730469 238.488281 560.101562 254.859375 560.964844 271.632812 C 561.222656 276.421875 561.347656 281.226562 561.347656 286.074219 Z M 561.347656 286.074219 " fill-opacity="1" fill-rule="nonzero"/></g><path fill="#3b8739" d="M 272.828125 308.140625 L 272.828125 236.699219 L 210.960938 200.980469 L 149.09375 236.699219 L 149.09375 308.140625 L 210.960938 343.859375 Z M 272.828125 308.140625 " fill-opacity="1" fill-rule="nonzero"/><path fill="#333333" d="M 516.484375 297.300781 L 556.804688 320.585938 L 516.484375 343.867188 L 454.625 308.144531 L 454.625 236.707031 L 516.484375 200.984375 L 553.980469 222.644531 C 557.730469 238.488281 560.101562 254.859375 560.964844 271.625 L 538.042969 284.863281 L 538.042969 259.976562 L 516.484375 247.539062 L 494.929688 259.976562 L 494.929688 284.863281 Z M 516.484375 297.300781 " fill-opacity="1" fill-rule="nonzero"/><path fill="#66a060" d="M 528.492188 279.355469 L 528.492188 265.488281 L 516.484375 258.554688 L 504.472656 265.488281 L 504.472656 279.355469 L 516.484375 286.289062 Z M 528.492188 279.355469 " fill-opacity="1" fill-rule="nonzero"/><g clip-path="url(#17b24664db)"><path fill="#333333" d="M 119.871094 236.707031 L 119.871094 330.910156 L 78.613281 307.375 L 78.613281 259.078125 L 58.011719 247.183594 L 37.410156 259.078125 L 37.410156 307.367188 L 13.980469 320.738281 C 12.542969 309.390625 11.804688 297.816406 11.804688 286.074219 C 11.804688 264.5625 14.273438 243.625 18.949219 223.535156 L 58.011719 200.984375 Z M 119.871094 236.707031 " fill-opacity="1" fill-rule="nonzero"/></g><path fill="#6da75d" d="M 210.957031 200.980469 L 272.824219 308.132812 L 210.960938 343.851562 L 149.09375 236.695312 Z M 210.957031 200.980469 " fill-opacity="1" fill-rule="nonzero"/><path fill="#55a344" d="M 149.09375 308.140625 L 170.339844 273.496094 L 149.09375 236.699219 Z M 149.09375 308.140625 " fill-opacity="1" fill-rule="nonzero"/><path fill="#639d57" d="M 252.207031 272.417969 L 272.828125 236.699219 L 210.960938 200.980469 Z M 252.207031 272.417969 " fill-opacity="1" fill-rule="nonzero"/><path fill="#333333" d="M 383.765625 118.183594 L 383.765625 212.960938 L 363.03125 200.984375 L 301.15625 236.707031 L 301.15625 308.144531 L 363.03125 343.867188 L 424.890625 308.144531 L 424.890625 140.195312 Z M 383.652344 284.324219 L 363.03125 296.238281 L 342.402344 284.324219 L 342.402344 260.515625 L 363.03125 248.601562 L 383.652344 260.515625 Z M 383.652344 284.324219 " fill-opacity="1" fill-rule="nonzero"/><path fill="#66a060" d="M 314.640625 396.320312 C 314.640625 396.320312 313.425781 385.882812 302.257812 385.882812 C 291.082031 385.882812 283.4375 387.339844 283.4375 393.527344 C 283.4375 399.722656 305.171875 399.722656 313.429688 402.148438 C 321.683594 404.582031 328.96875 410.890625 325.328125 422.0625 C 321.683594 433.238281 310.511719 434.449219 293.273438 434.449219 C 276.03125 434.449219 272.144531 420.121094 272.144531 414.53125 L 281.855469 414.53125 C 281.855469 414.53125 280.644531 423.28125 292.058594 424.738281 C 303.46875 426.1875 314.382812 427.011719 315.855469 418.179688 C 317.796875 406.519531 278.941406 412.351562 275.539062 400.9375 C 272.667969 391.300781 274.328125 378.597656 293.757812 376.652344 C 313.183594 374.707031 323.871094 383.289062 323.871094 396.078125 Z M 314.640625 396.320312 " fill-opacity="1" fill-rule="nonzero"/><path fill="#66a060" d="M 220.804688 441.847656 L 242.28125 454.242188 C 253.070312 460.472656 266.554688 452.6875 266.554688 440.230469 L 266.554688 378.519531 L 257.804688 378.519531 L 257.804688 437.792969 C 257.804688 444.601562 250.441406 448.851562 244.542969 445.449219 L 229.554688 436.796875 L 229.554688 373.535156 L 284.34375 341.90625 L 339.125 373.535156 L 339.125 436.796875 L 284.34375 468.417969 L 268.558594 459.3125 L 258.253906 463.464844 L 284.34375 478.527344 L 347.878906 441.84375 L 347.878906 368.480469 L 284.34375 331.796875 L 220.804688 368.480469 Z M 220.804688 441.847656 " fill-opacity="1" fill-rule="nonzero"/></svg>