<svg xmlns="http://www.w3.org/2000/svg" xmlns:xlink="http://www.w3.org/1999/xlink" width="764" zoomAndPan="magnify" viewBox="0 0 573 573.000005" height="764" preserveAspectRatio="xMidYMid meet" version="1.0"><defs><clipPath id="8afdaace2c"><path d="M 482 242 L 572.5 242 L 572.5 345 L 482 345 Z M 482 242 " clip-rule="nonzero"/></clipPath><clipPath id="98a1a0a945"><path d="M 6.078125 185 L 453 185 L 453 346 L 6.078125 346 Z M 6.078125 185 " clip-rule="nonzero"/></clipPath></defs><g clip-path="url(#8afdaace2c)"><path fill="#83cd29" d="M 527.484375 242.183594 C 526.105469 242.183594 524.765625 242.46875 523.578125 243.136719 L 486 264.792969 C 483.566406 266.191406 482.089844 268.832031 482.089844 271.640625 L 482.089844 314.871094 C 482.089844 317.679688 483.566406 320.316406 486 321.71875 L 495.8125 327.359375 C 500.582031 329.707031 502.339844 329.667969 504.511719 329.667969 C 511.570312 329.667969 515.597656 325.394531 515.597656 317.964844 L 515.597656 275.3125 C 515.597656 274.707031 515.074219 274.277344 514.480469 274.277344 L 509.773438 274.277344 C 509.171875 274.277344 508.65625 274.71875 508.65625 275.3125 L 508.65625 317.984375 C 508.65625 321.277344 505.21875 324.589844 499.644531 321.804688 L 489.441406 315.835938 C 489.082031 315.640625 488.804688 315.28125 488.804688 314.878906 L 488.804688 271.648438 C 488.804688 271.238281 489.078125 270.820312 489.441406 270.613281 L 526.941406 249.035156 C 527.292969 248.835938 527.710938 248.835938 528.054688 249.035156 L 565.554688 270.613281 C 565.910156 270.828125 566.191406 271.226562 566.191406 271.648438 L 566.191406 314.878906 C 566.191406 315.292969 565.984375 315.714844 565.632812 315.914062 L 528.058594 337.492188 C 527.722656 337.683594 527.28125 337.683594 526.941406 337.492188 L 517.285156 331.757812 C 517 331.589844 516.605469 331.605469 516.328125 331.757812 C 513.664062 333.265625 513.164062 333.441406 510.667969 334.308594 C 510.050781 334.519531 509.113281 334.855469 510.984375 335.898438 L 523.589844 343.3125 C 524.789062 344.007812 526.128906 344.347656 527.5 344.347656 C 528.890625 344.347656 530.210938 344.015625 531.410156 343.3125 L 568.988281 321.738281 C 571.417969 320.324219 572.898438 317.699219 572.898438 314.890625 L 572.898438 271.660156 C 572.898438 268.851562 571.417969 266.214844 568.988281 264.8125 L 531.410156 243.15625 C 530.234375 242.488281 528.882812 242.203125 527.5 242.203125 Z M 537.539062 273.074219 C 526.839844 273.074219 520.464844 277.621094 520.464844 285.175781 C 520.464844 293.363281 526.789062 295.625 537.0625 296.640625 C 549.347656 297.839844 550.304688 299.640625 550.304688 302.054688 C 550.304688 306.238281 546.960938 308.023438 539.054688 308.023438 C 529.125 308.023438 526.941406 305.550781 526.210938 300.609375 C 526.125 300.082031 525.714844 299.65625 525.175781 299.65625 L 520.296875 299.65625 C 520.148438 299.660156 520.007812 299.6875 519.871094 299.746094 C 519.738281 299.804688 519.617188 299.886719 519.511719 299.988281 C 519.410156 300.09375 519.328125 300.210938 519.269531 300.347656 C 519.210938 300.480469 519.183594 300.621094 519.179688 300.769531 C 519.179688 307.082031 522.617188 314.542969 539.042969 314.542969 C 550.933594 314.542969 557.792969 309.894531 557.792969 301.726562 C 557.792969 293.648438 552.253906 291.464844 540.71875 289.941406 C 529.078125 288.390625 527.957031 287.648438 527.957031 284.925781 C 527.957031 282.675781 528.898438 279.667969 537.527344 279.667969 C 545.238281 279.667969 548.089844 281.328125 549.257812 286.515625 C 549.359375 287.003906 549.789062 287.402344 550.292969 287.402344 L 555.171875 287.402344 C 555.472656 287.402344 555.761719 287.21875 555.972656 287.003906 C 556.175781 286.773438 556.320312 286.515625 556.289062 286.207031 C 555.535156 277.273438 549.566406 273.070312 537.542969 273.070312 Z M 537.539062 273.074219 " fill-opacity="1" fill-rule="nonzero"/></g><g clip-path="url(#98a1a0a945)"><path fill="#404137" d="M 306.570312 185.511719 C 306.144531 185.511719 305.746094 185.617188 305.375 185.828125 C 305.003906 186.046875 304.714844 186.335938 304.5 186.707031 C 304.289062 187.074219 304.179688 187.472656 304.179688 187.898438 L 304.179688 248.804688 C 304.179688 249.402344 303.898438 249.9375 303.378906 250.238281 C 303.121094 250.386719 302.839844 250.464844 302.542969 250.464844 C 302.242188 250.464844 301.960938 250.386719 301.703125 250.238281 L 291.730469 244.507812 C 290.992188 244.078125 290.191406 243.863281 289.335938 243.863281 C 288.480469 243.863281 287.683594 244.078125 286.945312 244.507812 L 247.136719 267.433594 C 245.648438 268.289062 244.742188 269.9375 244.742188 271.652344 L 244.742188 317.511719 C 244.738281 318.363281 244.953125 319.160156 245.382812 319.902344 C 245.808594 320.640625 246.394531 321.222656 247.136719 321.648438 L 286.945312 344.578125 C 287.6875 345.007812 288.484375 345.222656 289.339844 345.222656 C 290.195312 345.222656 290.992188 345.007812 291.734375 344.578125 L 331.542969 321.648438 C 332.285156 321.222656 332.871094 320.640625 333.296875 319.902344 C 333.726562 319.160156 333.9375 318.363281 333.9375 317.511719 L 333.9375 203.183594 C 333.9375 201.445312 332.988281 199.8125 331.464844 198.964844 L 307.769531 185.746094 C 307.398438 185.539062 306.984375 185.5 306.570312 185.503906 Z M 50.472656 242.753906 C 49.710938 242.785156 49 242.914062 48.316406 243.3125 L 8.507812 266.238281 C 7.765625 266.664062 7.179688 267.246094 6.753906 267.988281 C 6.324219 268.726562 6.113281 269.523438 6.113281 270.378906 L 6.195312 331.921875 C 6.195312 332.777344 6.640625 333.570312 7.394531 333.992188 C 8.132812 334.433594 9.050781 334.433594 9.785156 333.992188 L 33.402344 320.457031 C 34.898438 319.570312 35.875 318.027344 35.875 316.316406 L 35.875 287.574219 C 35.875 285.859375 36.777344 284.289062 38.269531 283.433594 L 48.320312 277.625 C 49.0625 277.195312 49.859375 276.980469 50.714844 276.988281 C 51.570312 276.980469 52.367188 277.195312 53.109375 277.625 L 63.15625 283.433594 C 64.644531 284.285156 65.550781 285.855469 65.550781 287.570312 L 65.550781 316.3125 C 65.550781 318.019531 66.546875 319.574219 68.023438 320.449219 L 91.636719 333.984375 C 92.378906 334.425781 93.296875 334.425781 94.03125 333.984375 C 94.761719 333.5625 95.226562 332.769531 95.226562 331.914062 L 95.308594 270.375 C 95.3125 269.519531 95.101562 268.722656 94.671875 267.980469 C 94.246094 267.242188 93.660156 266.660156 92.914062 266.234375 L 53.105469 243.3125 C 52.433594 242.921875 51.714844 242.789062 50.949219 242.757812 L 50.472656 242.757812 Z M 408.207031 243.3125 C 407.351562 243.308594 406.554688 243.519531 405.8125 243.949219 L 366.003906 266.878906 C 364.515625 267.734375 363.609375 269.304688 363.609375 271.015625 L 363.609375 316.871094 C 363.609375 318.597656 364.582031 320.160156 366.082031 321.011719 L 405.570312 343.472656 C 407.03125 344.304688 408.808594 344.367188 410.277344 343.550781 L 434.214844 330.253906 C 434.972656 329.835938 435.484375 329.046875 435.488281 328.1875 C 435.492188 327.324219 435.042969 326.546875 434.289062 326.117188 L 394.238281 303.1875 C 393.488281 302.761719 392.964844 301.894531 392.964844 301.039062 L 392.964844 286.695312 C 392.964844 285.839844 393.496094 285.054688 394.238281 284.628906 L 406.683594 277.460938 C 407.425781 277.035156 408.335938 277.035156 409.082031 277.460938 L 421.554688 284.628906 C 421.925781 284.839844 422.21875 285.132812 422.433594 285.5 C 422.644531 285.871094 422.753906 286.269531 422.75 286.695312 L 422.75 298.003906 C 422.75 298.429688 422.855469 298.828125 423.070312 299.199219 C 423.285156 299.566406 423.578125 299.859375 423.949219 300.070312 C 424.695312 300.5 425.597656 300.503906 426.34375 300.070312 L 450.195312 286.21875 C 451.675781 285.359375 452.589844 283.785156 452.589844 282.078125 L 452.589844 271.015625 C 452.589844 270.160156 452.375 269.363281 451.949219 268.625 C 451.519531 267.886719 450.9375 267.300781 450.195312 266.875 L 410.625 243.945312 C 409.882812 243.519531 409.085938 243.304688 408.230469 243.308594 Z M 289.171875 277.546875 C 289.398438 277.546875 289.613281 277.597656 289.8125 277.703125 L 303.453125 285.585938 C 303.824219 285.800781 304.09375 286.195312 304.09375 286.621094 L 304.09375 302.382812 C 304.09375 302.8125 303.828125 303.207031 303.453125 303.417969 L 289.8125 311.300781 C 289.441406 311.511719 288.988281 311.511719 288.613281 311.300781 L 274.972656 303.417969 C 274.601562 303.207031 274.332031 302.808594 274.332031 302.382812 L 274.332031 286.625 C 274.332031 286.199219 274.601562 285.804688 274.972656 285.589844 L 288.613281 277.710938 C 288.800781 277.601562 288.964844 277.550781 289.171875 277.550781 Z M 289.171875 277.546875 " fill-opacity="1" fill-rule="nonzero"/></g><path fill="#83cd29" d="M 170.058594 243.070312 C 169.203125 243.070312 168.40625 243.28125 167.664062 243.707031 L 127.855469 266.558594 C 126.367188 267.414062 125.460938 269.0625 125.460938 270.777344 L 125.460938 316.632812 C 125.460938 317.488281 125.671875 318.285156 126.101562 319.023438 C 126.527344 319.765625 127.113281 320.347656 127.855469 320.773438 L 167.664062 343.703125 C 168.40625 344.128906 169.203125 344.34375 170.058594 344.34375 C 170.914062 344.34375 171.710938 344.128906 172.453125 343.703125 L 212.261719 320.773438 C 213.003906 320.347656 213.589844 319.761719 214.015625 319.023438 C 214.445312 318.285156 214.660156 317.488281 214.65625 316.632812 L 214.65625 270.777344 C 214.65625 269.0625 213.753906 267.414062 212.261719 266.558594 L 172.453125 243.710938 C 171.710938 243.28125 170.914062 243.070312 170.054688 243.074219 Z M 408.128906 283.992188 C 407.972656 283.992188 407.796875 283.992188 407.652344 284.070312 L 399.992188 288.53125 C 399.679688 288.703125 399.519531 288.96875 399.511719 289.324219 L 399.511719 298.082031 C 399.511719 298.414062 399.703125 298.714844 399.992188 298.878906 L 407.652344 303.257812 C 407.941406 303.4375 408.234375 303.4375 408.527344 303.257812 L 416.1875 298.878906 C 416.46875 298.71875 416.664062 298.414062 416.664062 298.082031 L 416.664062 289.324219 C 416.664062 288.996094 416.472656 288.695312 416.1875 288.527344 L 408.527344 284.070312 C 408.386719 283.984375 408.289062 283.992188 408.128906 283.992188 Z M 408.128906 283.992188 " fill-opacity="1" fill-rule="nonzero"/></svg>