<svg xmlns="http://www.w3.org/2000/svg" xmlns:xlink="http://www.w3.org/1999/xlink" width="764" zoomAndPan="magnify" viewBox="0 0 573 573.000005" height="764" preserveAspectRatio="xMidYMid meet" version="1.0"><defs><clipPath id="54e05ee5b5"><path d="M 13.210938 12.710938 L 559.757812 12.710938 L 559.757812 559.257812 L 13.210938 559.257812 Z M 13.210938 12.710938 " clip-rule="nonzero"/></clipPath></defs><g clip-path="url(#54e05ee5b5)"><path fill="#007acc" d="M 13.210938 559.257812 L 559.757812 559.257812 L 559.757812 12.710938 L 13.210938 12.710938 Z M 13.210938 559.257812 " fill-opacity="1" fill-rule="nonzero"/></g><path fill="#ffffff" d="M 134.046875 287.777344 L 133.878906 310.171875 L 205.015625 310.171875 L 205.015625 512.308594 L 255.332031 512.308594 L 255.332031 310.171875 L 326.472656 310.171875 L 326.472656 288.226562 C 326.472656 276.078125 326.210938 265.914062 325.863281 265.660156 C 325.605469 265.316406 282.3125 265.148438 229.820312 265.234375 L 134.304688 265.488281 Z M 134.046875 287.777344 " fill-opacity="1" fill-rule="nonzero"/><path fill="#ffffff" d="M 454.226562 264.871094 C 468.101562 268.328125 478.691406 274.5 488.40625 284.554688 C 493.421875 289.933594 500.894531 299.734375 501.492188 302.082031 C 501.664062 302.785156 477.902344 318.734375 463.492188 327.679688 C 462.980469 328.019531 460.910156 325.757812 458.558594 322.300781 C 451.535156 312.050781 444.148438 307.632812 432.875 306.863281 C 416.308594 305.734375 405.632812 314.402344 405.71875 328.898438 C 405.71875 333.144531 406.339844 335.664062 408.070312 339.121094 C 411.71875 346.679688 418.488281 351.183594 439.730469 360.386719 C 478.863281 377.210938 495.601562 388.3125 506.019531 404.109375 C 517.632812 421.722656 520.238281 449.820312 512.339844 470.722656 C 503.671875 493.457031 482.152344 508.894531 451.878906 514.019531 C 442.503906 515.660156 420.300781 515.40625 410.226562 513.589844 C 388.277344 509.683594 367.460938 498.839844 354.632812 484.621094 C 349.59375 479.070312 339.792969 464.574219 340.390625 463.527344 C 340.667969 463.183594 342.910156 461.796875 345.429688 460.324219 C 347.863281 458.9375 357.066406 453.640625 365.734375 448.601562 L 381.425781 439.507812 L 384.734375 444.355469 C 389.324219 451.378906 399.402344 461.007812 405.464844 464.230469 C 422.90625 473.410156 446.839844 472.109375 458.644531 461.539062 C 463.683594 456.929688 465.753906 452.167969 465.753906 445.144531 C 465.753906 438.804688 464.984375 436.027344 461.675781 431.265625 C 457.429688 425.183594 448.761719 420.058594 424.125 409.40625 C 395.921875 397.257812 383.773438 389.699219 372.671875 377.722656 C 366.246094 370.785156 360.183594 359.683594 357.664062 350.394531 C 355.570312 342.6875 355.058594 323.347656 356.703125 315.53125 C 362.53125 288.289062 383.089844 269.289062 412.746094 263.652344 C 422.371094 261.839844 444.769531 262.519531 454.226562 264.871094 Z M 454.226562 264.871094 " fill-opacity="1" fill-rule="nonzero"/></svg>